<svg xmlns="http://www.w3.org/2000/svg" xmlns:xlink="http://www.w3.org/1999/xlink" width="2000" zoomAndPan="magnify" viewBox="0 0 1500 1499.999933" height="2000" preserveAspectRatio="xMidYMid meet" version="1.0"><defs><g/><clipPath id="6a401eafd4"><rect x="0" width="1067" y="0" height="1500"/></clipPath><clipPath id="8ff6897fce"><rect x="0" width="383" y="0" height="586"/></clipPath></defs><g transform="matrix(1, 0, 0, 1, 131, 0.000000000000112861)"><g clip-path="url(#6a401eafd4)"><g fill="#ffffff" fill-opacity="1"><g transform="translate(0.796041, 1290.468553)"><g><path d="M 518.90625 -407.375 L 355.640625 -407.375 L 355.640625 -244.109375 C 355.640625 -224.703125 353.488281 -210.148438 349.1875 -200.453125 C 344.875 -188.597656 338.40625 -178.359375 329.78125 -169.734375 C 321.15625 -161.117188 307.6875 -156.8125 289.375 -156.8125 C 275.363281 -156.8125 264.046875 -161.117188 255.421875 -169.734375 C 238.171875 -188.054688 229.007812 -212.847656 227.9375 -244.109375 L 227.9375 -944.0625 C 229.007812 -952.6875 230.082031 -960.5 231.15625 -967.5 C 232.238281 -974.507812 233.859375 -981.25 236.015625 -987.71875 C 240.328125 -998.488281 246.523438 -1008.453125 254.609375 -1017.609375 C 262.691406 -1026.773438 274.28125 -1031.359375 289.375 -1031.359375 C 307.6875 -1031.359375 321.15625 -1027.046875 329.78125 -1018.421875 C 347.019531 -1000.109375 355.640625 -975.320312 355.640625 -944.0625 L 355.640625 -780.796875 L 518.90625 -780.796875 L 518.90625 -944.0625 C 516.75 -992.5625 507.054688 -1035.132812 489.828125 -1071.78125 C 482.273438 -1087.945312 472.84375 -1103.84375 461.53125 -1119.46875 C 450.21875 -1135.09375 436.476562 -1148.832031 420.3125 -1160.6875 C 404.144531 -1172.539062 385.015625 -1182.238281 362.921875 -1189.78125 C 340.828125 -1197.332031 315.234375 -1201.109375 286.140625 -1201.109375 C 257.035156 -1201.109375 231.164062 -1197.332031 208.53125 -1189.78125 C 185.90625 -1182.238281 166.507812 -1172.539062 150.34375 -1160.6875 C 134.175781 -1148.832031 120.703125 -1135.09375 109.921875 -1119.46875 C 99.148438 -1103.84375 89.992188 -1087.945312 82.453125 -1071.78125 C 65.203125 -1035.132812 55.5 -992.5625 53.34375 -944.0625 L 53.34375 -244.109375 C 55.5 -194.523438 65.203125 -151.414062 82.453125 -114.78125 C 89.992188 -98.613281 99.148438 -82.984375 109.921875 -67.890625 C 120.703125 -52.804688 134.175781 -39.335938 150.34375 -27.484375 C 183.75 -0.535156 229.015625 12.9375 286.140625 12.9375 C 342.179688 12.9375 386.90625 -0.535156 420.3125 -27.484375 C 436.476562 -39.335938 450.21875 -52.804688 461.53125 -67.890625 C 472.84375 -82.984375 482.273438 -98.613281 489.828125 -114.78125 C 507.054688 -151.414062 516.75 -194.523438 518.90625 -244.109375 Z M 518.90625 -407.375 "/></g></g></g><g fill="#ffffff" fill-opacity="1"><g transform="translate(560.132314, 1290.468553)"><g><path d="M 480.125 -1008.734375 L 480.125 -1188.171875 L 64.65625 -1188.171875 L 64.65625 0 L 239.25 0 L 239.25 -517.296875 L 400.90625 -517.296875 L 400.90625 -696.734375 L 239.25 -696.734375 L 239.25 -1008.734375 Z M 480.125 -1008.734375 "/></g></g></g></g></g><g transform="matrix(1, 0, 0, 1, 1097, 716)"><g clip-path="url(#8ff6897fce)"><g fill="#501919" fill-opacity="1"><g transform="translate(30.519299, 442.427714)"><g><path d="M 341.140625 19.390625 L 341.140625 136.9375 L -26.046875 136.9375 L -26.046875 19.390625 Z M 341.140625 19.390625 "/></g></g></g></g></g></svg>